:version 1.10
:name ASF
:units
  mass 1
  length 1
  angle deg
:documentation
  ASF file generated by Kaydara
:root
  axis xyz
  order  tx ty tz rx ry rz
  position 0 0 0
  orientation 0 0 0
:bonedata
  begin
    id 1
    name RightUpLegDummy
    direction -1 2.30186e-007 8.31532e-007
    length 4.46685
    axis 0 0 0 xyz
  end
  begin
    id 2
    name RightUpLeg
    direction -2.30187e-007 -1 1.24343e-010
    length 16.4045
    axis -3.49089 -0.000906625 0.000286804 xyz
    dof rx ry rz
  end
  begin
    id 3
    name RightLeg
    direction -2.30181e-007 -1 -4.17157e-009
    length 17.5097
    axis 3.68512 0.0193738 -0.131023 xyz
    dof rx ry rz
  end
  begin
    id 4
    name RightFoot
    direction 8.31421e-007 -4.51202e-011 1
    length 6.49508
    axis 4.81691e-005 -0.120479 -0.188788 xyz
    dof rx ry rz
  end
  begin
    id 5
    name RightToes
    direction 0.00124746 -0.014064 0.9999
    length 3.85082
    axis 0.000481921 0.542163 -0.142578 xyz
    dof rx ry rz
  end
  begin
    id 6
    name SpineDummy
    direction 0.0717043 0.9409 -0.331007
    length 10.0032
    axis 0 0 0 xyz
  end
  begin
    id 7
    name Spine
    direction 2.30186e-007 1 4.58806e-011
    length 9.84055
    axis -0.001389 0.000121418 2.40972e-006 xyz
    dof rx ry rz
  end
  begin
    id 8
    name Spine1
    direction 0 0 0
    length 0
    axis -0.001389 0.000121451 1.30017e-006 xyz
    dof rx ry rz
  end
  begin
    id 9
    name HEadDummy
    direction -0.00347485 0.950688 -0.310128
    length 8.00997
    axis -0.001389 0.000121451 1.30017e-006 xyz
  end
  begin
    id 10
    name HEad
    direction -0.0222688 0.980941 0.193023
    length 5.12695
    axis -0.001389 0.000121451 1.30017e-006 xyz
    dof rx ry rz
  end
  begin
    id 11
    name LeftShoulder1Dummy
    direction 0.988871 0.146793 -0.0242004
    length 3.5792
    axis -0.001389 0.000121451 1.30017e-006 xyz
  end
  begin
    id 12
    name LeftShoulder1
    direction 0.993832 0.108932 0.020779
    length 4.16823
    axis -0.001389 0.000121451 1.30017e-006 xyz
    dof rx ry rz
  end
  begin
    id 13
    name LeftArm
    direction 1 3.44807e-006 -8.31404e-007
    length 9.91437
    axis -23.1894 0.134784 0.967509 xyz
    dof rx ry rz
  end
  begin
    id 14
    name LeftForeArm
    direction 1 3.44842e-006 -8.31581e-007
    length 9.08575
    axis -9.91835 -0.06569 -0.177793 xyz
    dof rx ry rz
  end
  begin
    id 15
    name LeftHand
    direction 0.992938 -0.0411636 0.11126
    length 5.32135
    axis -0.00960232 -0.00340091 0.185173 xyz
    dof rx ry rz
  end
  begin
    id 16
    name RightShoulderDummy
    direction -0.988871 0.146793 -0.0241962
    length 3.5792
    axis -0.001389 0.000121451 1.30017e-006 xyz
  end
  begin
    id 17
    name RightShoulder
    direction -0.993832 0.108933 0.0207785
    length 4.16823
    axis 0.215806 0.000203643 -0.0068026 xyz
    dof rx ry rz
  end
  begin
    id 18
    name RightArm
    direction -1 3.90912e-006 8.31284e-007
    length 9.91437
    axis -23.2009 -0.134239 -0.964101 xyz
    dof rx ry rz
  end
  begin
    id 19
    name RightForeArm
    direction -1 3.90882e-006 8.31502e-007
    length 9.08575
    axis -9.92322 0.0658061 0.178867 xyz
    dof rx ry rz
  end
  begin
    id 20
    name RightHand
    direction -0.992843 -0.0414603 0.112003
    length 5.28593
    axis -0.00960638 0.00330671 -0.185228 xyz
    dof rx ry rz
  end
  begin
    id 21
    name LeftUpLegDummy
    direction 1 -2.30186e-007 -8.31532e-007
    length 4.46685
    axis 0 0 0 xyz
  end
  begin
    id 22
    name LeftUpLeg
    direction -2.30187e-007 -1 6.00931e-010
    length 16.4045
    axis -3.48766 0.00143442 -0.000524262 xyz
    dof rx ry rz
  end
  begin
    id 23
    name LeftLeg
    direction -2.30187e-007 -1 1.6669e-009
    length 17.5097
    axis 3.68178 -0.00654042 -0.000285133 xyz
    dof rx ry rz
  end
  begin
    id 24
    name LeftFoot
    direction 8.31532e-007 -4.54478e-011 1
    length 6.49508
    axis 1.87233e-006 4.66016e-005 -8.6538e-006 xyz
    dof rx ry rz
  end
  begin
    id 25
    name LeftToes
    direction 0.00818058 -0.00485161 0.999955
    length 3.85048
    axis 1.06247e-005 4.65869e-005 -8.65513e-006 xyz
    dof rx ry rz
  end
:hierarchy
  begin
    root RightUpLegDummy SpineDummy LeftUpLegDummy
    RightUpLegDummy RightUpLeg
    RightUpLeg RightLeg
    RightLeg RightFoot
    RightFoot RightToes
    SpineDummy Spine
    Spine Spine1
    Spine1 HEadDummy LeftShoulder1Dummy RightShoulderDummy
    HEadDummy HEad
    LeftShoulder1Dummy LeftShoulder1
    LeftShoulder1 LeftArm
    LeftArm LeftForeArm
    LeftForeArm LeftHand
    RightShoulderDummy RightShoulder
    RightShoulder RightArm
    RightArm RightForeArm
    RightForeArm RightHand
    LeftUpLegDummy LeftUpLeg
    LeftUpLeg LeftLeg
    LeftLeg LeftFoot
    LeftFoot LeftToes
  end

:SAMPLES-PER-SECOND 30
:FULLY-SPECIFIED
:DEGREES
80
root  -71.7651 27.6577 47.426 -153.543 41.8435 -174.061
RightUpLeg  -47.073 -15.6417 -20.8331
RightLeg  50.4927 3.15253 3.30548
RightFoot  -0.359214 0.00505631 1.99431
RightToes  -42.6996 -0.2404 -0.329859
Spine  20.7306 0.751116 0.490276
Spine1  32.571 -0.0869718 2.70389
HEad  -2.62003 -8.09144 11.9529
LeftShoulder1  0 -2.42657e-020 -4.95415e-022
LeftArm  -30.3452 -57.6269 -78.3739
LeftForeArm  36.0941 -38.6656 -8.10536
LeftHand  1.3882 -10.2349 -15.7888
RightShoulder  0 2.42657e-020 1.07489e-018
RightArm  -46.7553 43.5329 84.9175
RightForeArm  27.0524 21.3486 3.94646
RightHand  0.357646 21.9638 2.21353
LeftUpLeg  -55.99 15.2354 22.6292
LeftLeg  63.8282 -8.16732 -13.9142
LeftFoot  -12.1025 0.0795544 0.750431
LeftToes  -47.3461 2.01279e-006 2.21547e-008
81
root  -70.9307 26.5884 48.7626 -151.715 42.0087 -173.108
RightUpLeg  -52.7363 -12.4508 -21.1738
RightLeg  55.5385 5.27662 6.61559
RightFoot  -2.74829 0.0371581 1.92698
RightToes  -57.4162 -0.370317 -0.391014
Spine  22.1848 0.161415 0.865808
Spine1  33.9516 -2.19004 4.08209
HEad  -3.70392 -6.74131 11.205
LeftShoulder1  0 -2.42657e-020 -4.95415e-022
LeftArm  -28.6355 -61.9364 -82.6863
LeftForeArm  41.2526 -27.9634 -5.35229
LeftHand  1.0134 -11.2439 -10.6439
RightShoulder  0 2.42657e-020 1.07489e-018
RightArm  -51.7075 50.2876 88.2619
RightForeArm  28.3003 16.8124 3.04918
RightHand  0.488056 21.7951 2.90547
LeftUpLeg  -58.5792 16.9751 26.5565
LeftLeg  66.2775 -7.8815 -14.8279
LeftFoot  -12.0979 -0.0013461 -0.012712
LeftToes  -50.4854 2.01279e-006 2.21547e-008
82
root  -70.1701 25.5197 50.0257 -150.992 41.7082 -173.528
RightUpLeg  -57.6197 -11.1644 -21.6671
RightLeg  62.7033 5.45929 8.90618
RightFoot  -9.37954 0.0489636 0.974477
RightToes  -60.7886 -0.402004 -0.400198
Spine  23.3987 -0.660531 1.53993
Spine1  35.153 -4.3008 5.5048
HEad  -4.66485 -5.83109 9.99559
LeftShoulder1  0 -2.42657e-020 -4.95415e-022
LeftArm  -27.0645 -65.5224 -88.3293
LeftForeArm  50.3851 -17.6531 -3.18543
LeftHand  0.819027 -10.8899 -8.95212
RightShoulder  0 2.42657e-020 1.07489e-018
RightArm  -57.7944 55.5714 90.0904
RightForeArm  31.0789 12.5674 2.24854
RightHand  0.294206 21.1379 1.94729
LeftUpLeg  -60.7924 17.1077 29.7777
LeftLeg  67.7154 -7.23313 -14.5092
LeftFoot  -11.7658 -0.102022 -0.990123
LeftToes  -53.0198 2.01279e-006 2.21547e-008
83
root  -69.5216 24.7128 51.3396 -149.508 41.3743 -173.994
RightUpLeg  -63.7095 -12.7133 -19.4571
RightLeg  69.0755 4.84464 10.2988
RightFoot  -14.1336 -0.0336488 0.106124
RightToes  -58.9755 -0.3849 -0.400228
Spine  23.8496 -1.13761 2.44811
Spine1  35.4298 -5.08596 6.31241
HEad  -5.70608 -4.80266 9.56374
LeftShoulder1  0 -2.42657e-020 -4.95415e-022
LeftArm  -25.9056 -67.4998 -92.7432
LeftForeArm  52.5287 -10.1532 -1.77974
LeftHand  0.733158 -8.86538 -9.81399
RightShoulder  0 2.42657e-020 1.07489e-018
RightArm  -62.0206 58.5996 88.7163
RightForeArm  29.7376 9.16049 1.62844
RightHand  0.0374598 19.9649 0.583019
LeftUpLeg  -63.129 17.1076 32.6015
LeftLeg  67.6703 -6.48022 -13.0362
LeftFoot  -10.2317 -0.201043 -2.24534
LeftToes  -54.1922 2.01279e-006 2.21547e-008
84
root  -68.9685 24.2624 52.455 -148.406 41.9013 -174.079
RightUpLeg  -69.203 -13.175 -17.1755
RightLeg  74.1524 4.23657 11.5499
RightFoot  -15.2673 -0.0913559 -0.304086
RightToes  -59.9095 -0.393692 -0.397984
Spine  24.2497 -1.19185 3.42746
Spine1  35.8534 -4.93205 7.03121
HEad  -6.78147 -3.99424 8.72295
LeftShoulder1  0 -2.42657e-020 -4.95415e-022
LeftArm  -22.1941 -67.1671 -95.9653
LeftForeArm  48.3212 -5.91662 -1.0287
LeftHand  0.809805 -7.79567 -12.2238
RightShoulder  0 2.42657e-020 1.07489e-018
RightArm  -69.6018 59.7381 86.3046
RightForeArm  33.2706 8.14325 1.44338
RightHand  -0.0780567 17.9256 -0.124938
LeftUpLeg  -63.432 16.1771 35.4082
LeftLeg  66.685 -5.00783 -9.73631
LeftFoot  -8.80772 -0.268664 -3.48747
LeftToes  -52.1107 2.01279e-006 2.21547e-008
85
root  -68.4865 24.2998 53.2879 -147.251 42.9867 -173.175
RightUpLeg  -71.6743 -12.2577 -14.946
RightLeg  75.1638 4.42971 12.7551
RightFoot  -16.2762 -0.210241 -1.09264
RightToes  -57.0667 -0.367066 -0.398577
Spine  24.8133 -1.01368 4.99331
Spine1  36.7884 -4.61612 8.96231
HEad  -8.0157 -3.29339 7.15805
LeftShoulder1  0 -2.42657e-020 -4.95415e-022
LeftArm  -14.8795 -65.0459 -101.758
LeftForeArm  49.2197 -4.7185 -0.815516
LeftHand  0.633891 -7.16659 -10.4764
RightShoulder  0 2.42657e-020 1.07489e-018
RightArm  -82.0175 60.1312 86.2559
RightForeArm  47.4391 12.6489 2.24536
RightHand  0.41856 16.9488 3.1799
LeftUpLeg  -62.1176 14.8538 37.7382
LeftLeg  65.361 -2.2814 -4.23746
LeftFoot  -7.51491 -0.305209 -4.64479
LeftToes  -43.8905 2.01279e-006 2.21547e-008
86
root  -68.3031 24.7602 53.7299 -146.527 45.1084 -172.949
RightUpLeg  -72.7593 -11.1738 -13.8093
RightLeg  73.5505 5.11073 13.4587
RightFoot  -15.1046 -0.242712 -1.45303
RightToes  -57.0001 -0.366447 -0.399566
Spine  24.877 -0.836208 6.12847
Spine1  36.8096 -4.47801 10.7759
HEad  -7.90019 -2.99975 6.26696
LeftShoulder1  0 -2.42657e-020 -4.95415e-022
LeftArm  -10.0577 -61.1906 -106.65
LeftForeArm  49.2589 -4.08754 -0.70429
LeftHand  0.321137 -6.05375 -6.4448
RightShoulder  0 2.42657e-020 1.07489e-018
RightArm  -82.635 59.2528 78.9869
RightForeArm  45.145 14.053 2.50974
RightHand  0.538705 18.126 3.74758
LeftUpLeg  -61.0451 12.7823 37.8272
LeftLeg  65.3335 1.62933 3.00379
LeftFoot  -4.4706 -0.220242 -5.6379
LeftToes  -34.4903 2.01279e-006 2.21547e-008
87
root  -68.3544 25.636 53.7962 -145.853 48.5098 -172.734
RightUpLeg  -72.1602 -9.00519 -14.0799
RightLeg  68.9443 6.84847 14.3711
RightFoot  -11.2248 -0.158123 -1.23149
RightToes  -59.9978 -0.394525 -0.398212
Spine  24.843 -0.967354 6.65742
Spine1  37.3109 -4.52111 10.9381
HEad  -7.54309 -1.02637 3.68098
LeftShoulder1  0 -2.42657e-020 -4.95415e-022
LeftArm  -12.2413 -58.3698 -106.83
LeftForeArm  45.4139 -4.10844 -0.713859
LeftHand  0.32416 -5.77824 -6.79455
RightShoulder  0 2.42657e-020 1.07489e-018
RightArm  -74.8798 57.132 77.4796
RightForeArm  38.8179 19.4306 3.55214
RightHand  1.1873 18.866 7.5099
LeftUpLeg  -60.1061 11.3743 36.4557
LeftLeg  66.7771 3.96025 7.73708
LeftFoot  0.0957811 0.00448394 -5.36083
LeftToes  -26.6954 2.01279e-006 2.21547e-008
88
root  -68.704 26.6863 53.3395 -148.959 54.0959 -176.543
RightUpLeg  -70.5317 -6.79665 -18.1572
RightLeg  63.3152 8.57382 14.1828
RightFoot  -8.3345 -0.0830975 -0.762976
RightToes  -57.4952 -0.371052 -0.391251
Spine  24.7469 -1.45775 5.22729
Spine1  37.851 -5.28464 9.01039
HEad  -6.79403 0.605492 0.825519
LeftShoulder1  0 -2.42657e-020 -4.95415e-022
LeftArm  -16.5909 -56.2131 -104.596
LeftForeArm  43.4455 -3.94266 -0.687396
LeftHand  0.337068 -5.62365 -7.23352
RightShoulder  0 2.42657e-020 1.07489e-018
RightArm  -58.7552 52.8079 74.7234
RightForeArm  35.5771 26.5046 5.03394
RightHand  0.163745 20.3146 1.28435
LeftUpLeg  -58.8381 6.34674 32.7384
LeftLeg  70.066 3.974 8.99139
LeftFoot  4.61229 0.174465 -4.33016
LeftToes  -20.5638 2.01279e-006 2.21547e-008
89
root  -69.1979 27.677 52.8463 -152.318 60.7814 178.103
RightUpLeg  -70.7734 -2.97072 -24.0312
RightLeg  57.2843 7.54263 10.029
RightFoot  -5.32909 -0.00712276 0.224528
RightToes  -55.1413 -0.349271 -0.383773
Spine  22.9807 -1.88882 2.64114
Spine1  35.916 -6.22014 6.07718
HEad  -5.34243 3.20132 -1.74561
LeftShoulder1  0 -2.42657e-020 -4.95415e-022
LeftArm  -21.1556 -53.1446 -100.07
LeftForeArm  43.0473 -3.53381 -0.616023
LeftHand  0.23224 -5.22932 -5.45945
RightShoulder  0 2.42657e-020 1.07489e-018
RightArm  -46.7211 47.4507 73.2193
RightForeArm  30.9691 32.7937 6.51951
RightHand  -1.24467 20.9941 -6.34201
LeftUpLeg  -59.0172 4.70247 27.3932
LeftLeg  72.9893 1.75355 4.61333
LeftFoot  7.80126 0.259274 -3.80117
LeftToes  -19.7063 2.01279e-006 2.21547e-008
90
root  -69.2386 28.2641 52.5024 -152.292 64.1583 177.832
RightUpLeg  -68.9338 0.702053 -26.1342
RightLeg  54.9 5.47626 6.71258
RightFoot  -4.28487 0.00645165 0.550096
RightToes  -51.5938 -0.317072 -0.37083
Spine  21.2423 -2.94619 1.78774
Spine1  33.6761 -8.1741 4.62889
HEad  -2.56535 7.3583 -3.32098
LeftShoulder1  0 -2.42657e-020 -4.95415e-022
LeftArm  -25.2907 -49.1577 -94.0503
LeftForeArm  41.3929 -3.61346 -0.632104
LeftHand  0.148728 -4.30846 -4.32921
RightShoulder  0 2.42657e-020 1.07489e-018
RightArm  -39.7763 42.996 76.8438
RightForeArm  35.3506 37.7743 7.85188
RightHand  -2.27925 21.7736 -11.4435
LeftUpLeg  -59.2996 6.0965 25.4853
LeftLeg  74.4578 -1.14212 -3.29138
LeftFoot  6.47455 0.249793 -4.41415
LeftToes  -27.1114 2.01279e-006 2.21547e-008
91
root  -68.8195 28.1942 52.4335 -149.076 62.7252 -176.427
RightUpLeg  -63.5697 2.14413 -22.2278
RightLeg  58.7575 2.67352 3.74128
RightFoot  -7.39172 0.0103463 0.537773
RightToes  -51.9784 -0.320523 -0.372329
Spine  20.7791 -4.72739 3.30375
Spine1  33.0558 -11.3604 5.97265
HEad  0.897243 10.9916 -3.79567
LeftShoulder1  0 -2.42657e-020 -4.95415e-022
LeftArm  -32.0102 -46.5884 -89.4697
LeftForeArm  42.9086 -2.93988 -0.511892
LeftHand  0.113758 -3.5842 -4.01233
RightShoulder  0 2.42657e-020 1.07489e-018
RightArm  -35.5998 39.3015 81.5054
RightForeArm  44.0049 42.7283 9.36893
RightHand  -3.02015 21.0039 -15.8221
LeftUpLeg  -59.8263 7.43898 28.3838
LeftLeg  74.8965 -2.43906 -7.15168
LeftFoot  2.45378 0.0883317 -4.12269
LeftToes  -31.8363 2.01279e-006 2.21547e-008
92
root  -68.6284 27.7858 52.42 -149.295 62.8617 -174.885
RightUpLeg  -59.7164 1.84785 -20.4192
RightLeg  60.0373 -0.517539 -0.865563
RightFoot  -11.9958 0.105493 1.38166
RightToes  -39.0016 -0.210557 -0.309413
Spine  20.0892 -6.22098 3.02606
Spine1  32.0812 -14.5085 6.26208
HEad  3.62444 12.4953 -2.78588
LeftShoulder1  0 -2.42657e-020 -4.95415e-022
LeftArm  -34.8024 -44.3129 -84.4962
LeftForeArm  40.306 -2.34031 -0.40991
LeftHand  0.0417233 -2.64976 -2.17954
RightShoulder  0 2.42657e-020 1.07489e-018
RightArm  -29.8563 32.4147 86.3301
RightForeArm  46.9978 52.1052 13.1116
RightHand  -3.64483 20.4693 -19.6245
LeftUpLeg  -60.7315 7.99447 29.541
LeftLeg  72.3931 -2.54203 -6.51139
LeftFoot  -3.24183 -0.0860131 -3.03886
LeftToes  -36.1715 2.01279e-006 2.21547e-008
93
root  -68.7354 27.1416 52.1237 -149.059 64.1171 -174.005
RightUpLeg  -60.2617 0.0620211 -20.7306
RightLeg  60.8333 -0.812764 -1.35096
RightFoot  -14.3401 0.164732 1.68707
RightToes  -24.3928 -0.107276 -0.211169
Spine  19.8951 -6.9647 2.79901
Spine1  31.3874 -17.033 8.14185
HEad  2.74649 11.5102 -2.40898
LeftShoulder1  0 -2.42657e-020 -4.95415e-022
LeftArm  -38.2872 -44.6993 -82.5773
LeftForeArm  39.3428 -1.28334 -0.225856
LeftHand  -0.00241003 -1.53522 -0.190947
RightShoulder  0 2.42657e-020 1.07489e-018
RightArm  -23.6912 27.3205 87.7277
RightForeArm  56.6381 60.7126 18.3696
RightHand  -5.00776 18.9084 -29.0669
LeftUpLeg  -63.3878 5.92404 30.9887
LeftLeg  69.9968 -2.80152 -6.37355
LeftFoot  -8.42548 -0.160289 -2.17585
LeftToes  -36.7933 2.01279e-006 2.21547e-008
